<?xml version="1.0" encoding="utf-8"?>
<!-- Generator: Adobe Illustrator 24.0.0, SVG Export Plug-In . SVG Version: 6.00 Build 0)  -->
<svg version="1.1" id="Layer_1" xmlns="http://www.w3.org/2000/svg" xmlns:xlink="http://www.w3.org/1999/xlink" x="0px" y="0px"
	 viewBox="0 0 50 50" style="enable-background:new 0 0 50 50;" xml:space="preserve">
<style type="text/css">
	.st0{fill:#445D98;}
	.st1{fill:#FFFFFF;}
</style>
<g>
	<path class="st0" d="M47.24,50c1.53,0,2.76-1.23,2.76-2.76V2.76C50,1.24,48.77,0,47.24,0H2.76C1.23,0,0,1.24,0,2.76v44.48
		C0,48.77,1.23,50,2.76,50H47.24z"/>
	<path class="st1" d="M34.5,50V30.64H41l0.97-7.55H34.5v-4.82c0-2.19,0.61-3.67,3.74-3.67l4,0V7.85c-0.69-0.09-3.07-0.3-5.83-0.3
		c-5.76,0-9.71,3.52-9.71,9.98v5.56h-6.52v7.55h6.52V50H34.5z"/>
</g>
<g>
	<g>
		<path class="st0" d="M2.72-0.75C0.77-0.87-1.17-0.41-2.91,0.46c-0.7,0.35-0.96,1.4-0.54,2.05c0.46,0.72,1.3,0.92,2.05,0.54
			c0.21-0.1,0.42-0.2,0.63-0.29C-0.88,2.81-1,2.86-1.12,2.91c0.78-0.32,1.59-0.54,2.42-0.66C1.17,2.28,1.04,2.29,0.9,2.31
			c0.6-0.08,1.21-0.1,1.82-0.06c0.78,0.05,1.53-0.72,1.5-1.5C4.19-0.1,3.57-0.7,2.72-0.75L2.72-0.75z"/>
	</g>
</g>
<g>
	<g>
		<path class="st0" d="M47.01,1.34c1.14,1.03,2.24,2.11,3.32,3.21c0.26,0.27,0.68,0.44,1.06,0.44c0.37,0,0.81-0.16,1.06-0.44
			c0.56-0.61,0.58-1.52,0-2.12c-1.07-1.11-2.18-2.18-3.32-3.21c-0.29-0.27-0.66-0.44-1.06-0.44c-0.37,0-0.81,0.16-1.06,0.44
			c-0.26,0.29-0.46,0.66-0.44,1.06C46.58,0.67,46.71,1.07,47.01,1.34L47.01,1.34z"/>
	</g>
</g>
<g>
	<g>
		<path class="st0" d="M48.14,45.96c-0.54,1.14-1.08,2.28-1.62,3.43c-0.18,0.37-0.26,0.75-0.15,1.16c0.1,0.35,0.36,0.73,0.69,0.9
			c0.35,0.18,0.77,0.28,1.16,0.15c0.35-0.11,0.73-0.34,0.9-0.69c0.54-1.14,1.08-2.28,1.62-3.43c0.18-0.37,0.26-0.75,0.15-1.16
			c-0.1-0.35-0.36-0.73-0.69-0.9c-0.35-0.18-0.77-0.28-1.16-0.15C48.68,45.38,48.3,45.61,48.14,45.96L48.14,45.96z"/>
	</g>
</g>
<g>
	<g>
		<path class="st0" d="M48.69,47.06c-0.63,1.17-1.26,2.34-1.89,3.52c-0.19,0.35-0.26,0.77-0.15,1.16c0.1,0.35,0.36,0.73,0.69,0.9
			c0.7,0.37,1.66,0.2,2.05-0.54c0.63-1.17,1.26-2.34,1.89-3.52c0.19-0.35,0.26-0.77,0.15-1.16c-0.1-0.35-0.36-0.72-0.69-0.9
			C50.04,46.15,49.08,46.32,48.69,47.06L48.69,47.06z"/>
	</g>
</g>
<g>
	<g>
		<path class="st0" d="M-1.71,48.08c0.11,0.75,0.23,1.52,0.43,2.25c0.07,0.26,0.18,0.52,0.3,0.76c0.06,0.12,0.15,0.22,0.23,0.32
			c0.08,0.11,0.16,0.21,0.26,0.3c0.29,0.24,0.59,0.45,0.96,0.54c0.36,0.09,0.79,0.1,1.15-0.01c0.37-0.12,0.7-0.35,0.9-0.69
			c0.19-0.32,0.27-0.8,0.15-1.16c-0.12-0.36-0.34-0.71-0.69-0.9c-0.35-0.18-0.77-0.28-1.16-0.15c-0.04,0.01-0.08,0.02-0.13,0.03
			c0.13-0.02,0.27-0.04,0.4-0.05c-0.05,0-0.09,0-0.13,0c0.13,0.02,0.27,0.04,0.4,0.05c-0.06-0.01-0.12-0.02-0.17-0.04
			c0.12,0.05,0.24,0.1,0.36,0.15c-0.07-0.03-0.14-0.07-0.2-0.11c0.1,0.08,0.2,0.16,0.3,0.23c-0.06-0.05-0.11-0.1-0.16-0.16
			c0.08,0.1,0.16,0.2,0.23,0.3c-0.07-0.1-0.13-0.2-0.17-0.3c0.05,0.12,0.1,0.24,0.15,0.36c-0.15-0.38-0.21-0.79-0.29-1.19
			c-0.09-0.44-0.16-0.88-0.23-1.32c-0.05-0.35-0.4-0.73-0.69-0.9c-0.32-0.19-0.8-0.27-1.16-0.15c-0.36,0.12-0.71,0.34-0.9,0.69
			c-0.05,0.12-0.1,0.24-0.15,0.36C-1.78,47.55-1.78,47.82-1.71,48.08L-1.71,48.08z"/>
	</g>
</g>
</svg>
